PathFileType  4	(X/Y/Z) C:\Users\antoi\Documents\MyRepositories\mobilecap\ResultsAnalysis
DataRate	CameraRate	NumFrames	NumMarkers	Units	OrigDataRate	OrigDataStartFrame	OrigNumFrames
100.0	100.0	6	51	mm	100.0	117	133
Frame#	Time	r_knee			r_shank_antsup			r_ankle			r_calc			r_5meta			r_toe			L_knee			L_shank_antsup			L_ankle			L_calc			L_5meta			L_toe			r_sh2			r_sh3			r_sh4			L_sh2			L_sh3			r_thigh1			r_thigh2			r_thigh3			r_thigh4			r_thigh5			L_thigh1			L_thigh2			L_thigh3			L_thigh4			r.ASIS			r.PSIS			L.ASIS			L.PSIS			C7			R_Shoulder			L_Shoulder			R_Sternum			L_Sternum			R_humerus			R_elbow_med			R_elbow_lat			R_forearm			R_wrist_radius			R_wrist_ulna			L_humerus			L_elbow_med			L_elbow_lat			L_forearm			L_wrist_radius			L_wrist_ulna			R_HJC			L_HJC			R_HJC_reg			L_HJC_reg			
		X1	Y1	Z1	X2	Y2	Z2	X3	Y3	Z3	X4	Y4	Z4	X5	Y5	Z5	X6	Y6	Z6	X7	Y7	Z7	X8	Y8	Z8	X9	Y9	Z9	X10	Y10	Z10	X11	Y11	Z11	X12	Y12	Z12	X13	Y13	Z13	X14	Y14	Z14	X15	Y15	Z15	X16	Y16	Z16	X17	Y17	Z17	X18	Y18	Z18	X19	Y19	Z19	X20	Y20	Z20	X21	Y21	Z21	X22	Y22	Z22	X23	Y23	Z23	X24	Y24	Z24	X25	Y25	Z25	X26	Y26	Z26	X27	Y27	Z27	X28	Y28	Z28	X29	Y29	Z29	X30	Y30	Z30	X31	Y31	Z31	X32	Y32	Z32	X33	Y33	Z33	X34	Y34	Z34	X35	Y35	Z35	X36	Y36	Z36	X37	Y37	Z37	X38	Y38	Z38	X39	Y39	Z39	X40	Y40	Z40	X41	Y41	Z41	X42	Y42	Z42	X43	Y43	Z43	X44	Y44	Z44	X45	Y45	Z45	X46	Y46	Z46	X47	Y47	Z47	X48	Y48	Z48	X49	Y49	Z49	X50	Y50	Z50	X51	Y51	Z51	

117	1.16000000	1473.13229	500.31517	-34.51164	1518.66323	438.99180	-64.27646	1501.91617	96.10354	-42.14455	1429.81580	63.98170	-56.29898	1614.46473	45.85202	-45.81987	1642.66831	79.34447	-111.45457	1227.93365	478.05947	-295.43470	1207.99710	374.52433	-297.56584	976.73526	163.04926	-272.53433	894.50739	165.22290	-235.61082	1033.32403	46.59987	-291.52797	1076.14788	52.64508	-231.28637	1519.72877	326.04881	-34.09045	1452.94144	442.98574	-14.51021	1450.68251	330.72828	-5.72752	1141.90064	434.55255	-306.66879	1069.05941	336.12679	-308.54564	1436.49613	818.18020	-4.65782	1465.78565	707.95100	-16.49746	1424.92858	672.79058	21.50664	1335.39897	786.99670	33.72361	1367.04739	674.81998	20.95287	1297.41416	735.62225	-346.54077	1287.13291	600.14734	-320.99848	1194.48131	748.90195	-294.19396	1188.28321	609.96388	-277.43322	1406.26212	967.48189	-46.17859	1208.32935	989.11208	-92.63449	1378.97368	932.91284	-294.98352	1188.88452	987.41635	-191.59186	1211.29441	1407.84130	-178.38209	1314.58898	1365.29904	-1.87707	1287.71120	1370.30350	-357.26863	1350.83394	1366.33670	-159.85586	1355.00800	1366.37319	-203.11948	1310.83572	1236.75732	71.12844	1215.25631	1036.11977	57.12808	1242.91610	1056.33925	121.16885	1298.99798	925.84654	138.50893	1311.81028	791.56808	153.54021	1293.77205	792.95944	184.70783	1330.46900	1263.19648	-415.30002	1315.91132	1020.97619	-394.52141	1363.00718	1056.06101	-449.88321	1448.45013	990.55047	-399.90134	1541.65394	868.74326	-363.32823	1540.16236	862.07915	-396.83106	1334.34999	882.01248	-48.92505	1303.20693	861.73603	-252.02885	1343.54194	872.82715	-67.18312	1311.39285	870.02155	-230.79430	
118	1.17000000	1483.59554	499.85593	-33.85627	1527.93849	437.40534	-64.09781	1503.79705	95.28414	-42.48818	1430.60889	64.75819	-56.23794	1615.38063	43.85936	-45.77186	1644.06106	76.21445	-111.89212	1248.17448	476.07657	-297.25991	1225.34808	373.66540	-300.02623	987.44260	169.96029	-273.36754	906.71651	177.97903	-235.28205	1035.40574	48.79906	-291.23791	1079.51411	52.52433	-231.74234	1527.13657	324.47597	-34.08644	1462.78811	442.61343	-13.78474	1458.45166	330.50752	-4.99060	1161.19203	436.03277	-307.19942	1084.93148	340.27944	-308.92848	1448.73525	818.26972	-3.57981	1477.54510	707.93375	-15.45550	1436.68130	672.96681	22.68801	1347.66845	787.55121	35.10581	1378.83975	675.23848	22.33860	1312.19036	734.99010	-345.78677	1305.11971	598.97490	-321.82166	1209.50996	745.46624	-292.27683	1206.58449	606.35658	-276.81936	1418.92498	967.73072	-44.77156	1220.81642	989.06798	-91.77292	1391.91587	933.29502	-293.50106	1201.59717	986.94540	-190.76017	1223.34096	1407.50497	-175.84370	1327.73675	1364.83285	-0.02973	1298.85837	1370.60674	-355.19662	1363.09219	1366.28895	-158.00797	1366.91433	1366.43496	-201.23431	1324.79203	1236.09252	72.67115	1229.15812	1035.50755	58.48781	1256.96914	1055.60870	122.51315	1312.47665	925.04607	140.17582	1324.64357	790.66430	155.58830	1306.66902	792.32937	186.74330	1341.33724	1263.52389	-413.54613	1325.88987	1021.31373	-393.28546	1372.81113	1056.29926	-448.78012	1458.25112	990.43055	-399.13172	1551.01526	868.22743	-362.89049	1549.34827	861.49593	-396.40285	1347.08127	882.15454	-47.69936	1316.40982	861.78620	-250.86236	1356.15486	873.57970	-65.56691	1324.39152	870.06963	-229.15644	
119	1.18000000	1494.06070	499.57763	-33.30229	1536.94179	435.92090	-63.75875	1505.09615	94.75467	-42.81285	1431.01771	65.39020	-56.08764	1615.97455	42.70475	-45.63014	1644.89682	73.95623	-112.29089	1269.42536	474.02394	-299.50114	1243.83609	373.01305	-302.89725	999.71532	177.04126	-274.42231	921.17514	191.51368	-235.11308	1037.77955	51.67420	-290.87252	1083.33536	52.86219	-232.40395	1533.96592	323.01731	-34.00644	1472.15468	442.38283	-13.21195	1465.52628	330.46541	-4.47758	1181.68866	437.62937	-307.94765	1102.11068	344.64810	-309.45392	1461.06655	818.64196	-2.63876	1489.44238	708.21135	-14.55460	1448.74431	673.44657	23.87246	1360.15831	788.29891	36.66835	1390.90756	675.88972	23.85237	1327.42458	734.30396	-345.24625	1323.79313	597.81622	-322.95737	1225.05124	741.70179	-290.63549	1225.60642	602.44628	-276.76717	1431.37995	968.16581	-43.16820	1233.08758	989.08403	-90.98590	1404.89631	933.61334	-291.75327	1214.15071	986.45748	-190.00477	1235.32256	1407.19480	-173.35222	1340.84132	1364.39738	1.75499	1309.90510	1370.92588	-353.18985	1375.24985	1366.28800	-156.21804	1378.75013	1366.55544	-199.38490	1338.91681	1235.42878	74.11208	1243.16561	1034.87462	59.95899	1271.24243	1054.87905	123.88449	1326.32360	924.29283	141.77993	1338.00620	789.82635	157.50423	1320.13948	791.73446	188.67074	1352.06565	1263.82483	-411.86291	1335.57067	1021.63857	-392.08487	1382.31731	1056.50768	-447.73027	1467.70599	990.13911	-398.52230	1559.85777	867.36208	-362.78711	1557.99726	860.60660	-396.31700	1359.58072	882.46161	-46.26418	1329.62348	861.78619	-249.49745	1368.64191	874.46472	-63.71275	1337.36367	870.12498	-227.25355	
120	1.19000000	1504.30200	499.36999	-32.85361	1545.59499	434.46511	-63.26349	1505.95014	94.43677	-43.12381	1431.17524	65.88495	-55.91257	1616.32872	42.12849	-45.39039	1645.35183	72.38253	-112.58816	1291.56460	471.97421	-302.00651	1263.42163	372.57623	-306.02405	1013.49968	184.22829	-275.71390	937.97391	205.55213	-235.14872	1040.59140	55.35824	-290.41855	1087.76904	53.83483	-233.32568	1540.21356	321.61082	-33.83247	1480.97956	442.19898	-12.75870	1471.90807	330.50763	-4.16717	1203.32467	439.30182	-308.87068	1120.58903	349.16421	-310.08438	1473.42366	819.13135	-1.79212	1501.30581	708.59267	-13.78436	1460.86677	674.05774	25.00219	1372.73383	789.15794	38.34381	1403.02040	676.65213	25.40998	1343.02102	733.57197	-344.92863	1342.99007	596.71356	-324.33776	1241.02156	737.70643	-289.26028	1245.20070	598.33683	-277.24194	1443.63279	968.78147	-41.42569	1245.14997	989.14366	-90.30161	1417.80245	933.80736	-289.79588	1226.48465	985.93504	-189.35644	1247.23159	1406.92379	-170.96455	1353.84729	1363.99882	3.45220	1320.88116	1371.23464	-351.27873	1387.30075	1366.32487	-154.50761	1390.51734	1366.72756	-197.60371	1353.12480	1234.77929	75.43447	1257.24895	1034.21549	61.52636	1285.70701	1054.13539	125.26426	1340.53631	923.58694	143.29011	1351.88609	789.04661	159.26904	1334.17793	791.16496	190.47769	1362.63262	1264.06368	-410.29475	1344.95186	1021.92482	-390.93280	1391.51617	1056.64473	-446.76004	1476.79328	989.64099	-398.08556	1568.20146	866.14395	-363.01376	1566.13777	859.41269	-396.56230	1371.83447	882.92932	-44.65650	1342.76601	861.68969	-247.95475	1381.02092	875.44455	-61.63993	1350.21816	870.14960	-225.09505	
121	1.20000000	1514.08624	499.09827	-32.48821	1553.84607	432.96624	-62.68037	1506.50975	94.24637	-43.44634	1431.21541	66.25265	-55.77607	1616.53234	41.88968	-45.09349	1645.59271	71.29571	-112.78686	1314.41327	470.02879	-304.61709	1284.02531	372.36742	-309.23720	1028.68647	191.47868	-277.21333	957.03199	219.72552	-235.37933	1044.14327	59.94952	-289.89363	1093.07527	55.59322	-234.54390	1545.95183	320.19864	-33.59539	1489.28302	441.96600	-12.37029	1477.71686	330.53620	-3.99132	1225.98688	441.01837	-309.92673	1140.30236	353.75353	-310.77385	1485.70619	819.55154	-0.97466	1512.94543	708.86841	-13.09446	1472.76372	674.61068	26.05337	1385.21108	790.02643	40.04583	1414.91673	677.39008	26.93698	1358.83622	732.82748	-344.82426	1362.52655	595.73114	-325.87571	1257.30517	733.60987	-288.10689	1265.18884	594.17216	-278.13903	1455.71040	969.53541	-39.62727	1257.03242	989.23135	-89.72927	1430.52746	933.84341	-287.72690	1238.56270	985.36833	-188.82778	1259.06112	1406.70286	-168.73392	1366.71259	1363.64862	5.03963	1331.81970	1371.51121	-349.48774	1399.25592	1366.39818	-152.90297	1402.22004	1366.93600	-195.92930	1367.31931	1234.17004	76.63102	1271.39298	1033.53348	63.15800	1300.32697	1053.37054	126.61763	1355.10653	922.93791	144.67592	1366.27884	788.33476	160.86451	1348.77123	790.61943	192.15027	1373.02841	1264.21608	-408.87577	1354.04157	1022.15521	-389.83890	1400.40569	1056.68121	-445.88578	1485.50121	988.91281	-397.83046	1576.06495	864.57866	-363.56510	1573.79303	857.91719	-397.12699	1383.85599	883.52392	-42.94755	1355.75335	861.47248	-246.29085	1393.30851	876.47847	-59.40359	1362.86590	870.11344	-222.73318	
122	1.21000000	1523.25139	498.65777	-32.18102	1561.67133	431.38659	-62.12987	1506.89772	94.11539	-43.79697	1431.22958	66.50932	-55.71431	1616.65574	41.80803	-44.79488	1645.74196	70.52987	-112.92235	1337.74511	468.31233	-307.20274	1305.53272	372.40937	-312.37294	1045.14020	198.76751	-278.83549	978.04876	233.59799	-235.73305	1048.93303	65.47836	-289.36926	1099.64676	58.24143	-236.06445	1551.29713	318.75252	-33.36756	1497.14515	441.62081	-12.00574	1483.14315	330.48209	-3.87168	1249.52345	442.77277	-311.08459	1161.13378	358.34377	-311.48186	1497.80948	819.75511	-0.12669	1524.20905	708.87985	-12.42333	1484.19308	674.95619	27.02115	1397.40779	790.81513	41.68034	1426.37036	677.99605	28.36635	1374.70543	732.13468	-344.90175	1382.21729	594.95397	-327.48194	1273.77614	729.55414	-287.10256	1285.39335	590.12632	-279.29269	1467.65061	970.34767	-37.86443	1268.77328	989.33551	-89.24610	1443.00220	933.72226	-285.66676	1250.37768	984.76135	-188.39841	1270.80482	1406.53875	-166.69828	1379.41382	1363.35834	6.50047	1342.74135	1371.74183	-347.83936	1411.13623	1366.51197	-151.43245	1413.86385	1367.15948	-194.39970	1381.41017	1233.63193	77.70027	1285.59682	1032.83501	64.81173	1315.06642	1052.58967	127.90402	1370.01355	922.35981	145.91062	1381.18490	787.71470	162.27267	1363.89415	790.10368	193.66901	1383.25575	1264.27067	-407.62352	1362.85132	1022.32258	-388.80922	1408.99736	1056.60521	-445.10983	1493.83882	987.94840	-397.75932	1583.46121	862.67725	-364.43106	1580.97913	856.12417	-397.99805	1395.68035	884.18159	-41.22604	1368.51376	861.14035	-244.58615	1405.51144	877.52506	-57.08823	1375.23873	870.00166	-220.25703	
